<svg width="927" height="229" viewBox="0 0 927 229" fill="none" xmlns="http://www.w3.org/2000/svg">
<path d="M708 198.018H719.427C721.382 198.018 722.899 198.574 723.977 199.686C725.078 200.798 725.629 202.273 725.629 204.112C725.629 205.02 725.505 205.792 725.258 206.427C725.034 207.063 724.719 207.585 724.314 207.993C723.932 208.402 723.472 208.708 722.932 208.912C722.416 209.094 721.854 209.196 721.247 209.219V209.423C721.809 209.423 722.393 209.525 723 209.73C723.629 209.934 724.202 210.263 724.719 210.717C725.236 211.148 725.663 211.716 726 212.419C726.359 213.123 726.539 213.985 726.539 215.007C726.539 215.937 726.382 216.823 726.067 217.662C725.775 218.48 725.359 219.195 724.82 219.807C724.281 220.42 723.64 220.908 722.899 221.271C722.157 221.612 721.348 221.782 720.472 221.782H708V198.018ZM713.124 217.424H719.022C719.696 217.424 720.225 217.243 720.607 216.879C721.011 216.494 721.213 215.96 721.213 215.279V214.122C721.213 213.441 721.011 212.919 720.607 212.555C720.225 212.17 719.696 211.977 719.022 211.977H713.124V217.424ZM713.124 207.755H718.213C718.888 207.755 719.416 207.562 719.798 207.176C720.18 206.79 720.371 206.257 720.371 205.576V204.554C720.371 203.874 720.18 203.34 719.798 202.954C719.416 202.568 718.888 202.375 718.213 202.375H713.124V207.755Z" fill="#4F46E5"/>
<path d="M740.77 203.908H745.421L738.612 224.54C738.163 225.924 737.523 226.946 736.691 227.604C735.882 228.262 734.714 228.591 733.186 228.591H730.084V224.676H733.421L734.028 222.701L727.826 203.908H732.781L735.377 212.249L736.657 217.424H736.86L738.174 212.249L740.77 203.908Z" fill="#4F46E5"/>
<path d="M756.191 198.018H765.056C766.607 198.018 768.022 198.267 769.303 198.767C770.584 199.266 771.674 200.015 772.573 201.014C773.472 201.99 774.168 203.227 774.663 204.725C775.157 206.2 775.404 207.925 775.404 209.9C775.404 211.875 775.157 213.611 774.663 215.109C774.168 216.584 773.472 217.821 772.573 218.82C771.674 219.796 770.584 220.534 769.303 221.033C768.022 221.532 766.607 221.782 765.056 221.782H756.191V198.018ZM765.056 217.186C766.584 217.186 767.787 216.755 768.663 215.892C769.539 215.03 769.977 213.645 769.977 211.738V208.061C769.977 206.155 769.539 204.77 768.663 203.908C767.787 203.045 766.584 202.614 765.056 202.614H761.315V217.186H765.056Z" fill="#4F46E5"/>
<path d="M786.806 222.191C785.458 222.191 784.256 221.975 783.2 221.544C782.144 221.09 781.245 220.466 780.503 219.671C779.784 218.854 779.234 217.867 778.852 216.709C778.492 215.552 778.312 214.258 778.312 212.828C778.312 211.421 778.492 210.149 778.852 209.015C779.211 207.857 779.739 206.87 780.436 206.053C781.155 205.235 782.031 204.611 783.065 204.18C784.099 203.726 785.278 203.499 786.604 203.499C788.065 203.499 789.312 203.749 790.346 204.248C791.402 204.747 792.256 205.417 792.908 206.257C793.582 207.097 794.065 208.073 794.357 209.185C794.672 210.274 794.829 211.421 794.829 212.624V214.122H783.469V214.394C783.469 215.574 783.784 216.516 784.413 217.22C785.042 217.901 786.031 218.241 787.38 218.241C788.413 218.241 789.256 218.037 789.908 217.628C790.559 217.197 791.166 216.686 791.728 216.096L794.222 219.229C793.436 220.159 792.402 220.886 791.121 221.408C789.863 221.93 788.424 222.191 786.806 222.191ZM786.705 207.21C785.694 207.21 784.896 207.551 784.312 208.232C783.75 208.89 783.469 209.775 783.469 210.887V211.16H789.672V210.853C789.672 209.764 789.424 208.89 788.93 208.232C788.458 207.551 787.717 207.21 786.705 207.21Z" fill="#4F46E5"/>
<path d="M801.798 221.782L796 203.908H800.922L803.113 211.125L804.764 217.594H805.034L806.686 211.125L808.809 203.908H813.528L807.731 221.782H801.798Z" fill="#4F46E5"/>
<path d="M815.355 221.782V217.662H818.389V202.137H815.355V198.018H826.546V202.137H823.513V217.662H826.546V221.782H815.355Z" fill="#4F46E5"/>
<path d="M830.545 221.782V203.908H835.534V206.938H835.736C836.051 206.007 836.601 205.201 837.388 204.52C838.174 203.839 839.264 203.499 840.658 203.499C842.478 203.499 843.849 204.112 844.77 205.338C845.714 206.563 846.186 208.311 846.186 210.581V221.782H841.197V210.989C841.197 209.832 841.017 208.981 840.658 208.436C840.298 207.868 839.658 207.585 838.736 207.585C838.332 207.585 837.939 207.641 837.556 207.755C837.174 207.846 836.826 208.005 836.512 208.232C836.219 208.458 835.983 208.742 835.804 209.083C835.624 209.4 835.534 209.775 835.534 210.206V221.782H830.545Z" fill="#4F46E5"/>
<path d="M867.007 223.076C867.007 224.029 866.838 224.869 866.501 225.595C866.187 226.322 865.659 226.935 864.917 227.434C864.175 227.956 863.187 228.342 861.951 228.591C860.737 228.864 859.232 229 857.434 229C855.906 229 854.602 228.898 853.524 228.694C852.468 228.512 851.602 228.24 850.928 227.876C850.277 227.536 849.794 227.105 849.479 226.583C849.187 226.083 849.041 225.505 849.041 224.846C849.041 223.848 849.333 223.065 849.917 222.497C850.501 221.93 851.31 221.578 852.344 221.442V221.067C851.49 220.908 850.85 220.545 850.423 219.978C849.996 219.387 849.782 218.707 849.782 217.935C849.782 217.458 849.872 217.05 850.052 216.709C850.254 216.346 850.501 216.04 850.794 215.79C851.108 215.518 851.468 215.302 851.872 215.143C852.277 214.984 852.681 214.859 853.086 214.768V214.632C852.007 214.133 851.209 213.452 850.692 212.589C850.176 211.704 849.917 210.683 849.917 209.525C849.917 207.709 850.535 206.257 851.771 205.167C853.029 204.055 854.94 203.499 857.501 203.499C858.67 203.499 859.67 203.613 860.501 203.839V203.159C860.501 202.205 860.726 201.524 861.175 201.116C861.647 200.685 862.31 200.469 863.164 200.469H865.962V204.214H862.052V204.418C863.086 204.918 863.85 205.61 864.344 206.495C864.838 207.358 865.085 208.368 865.085 209.525C865.085 211.318 864.456 212.76 863.198 213.849C861.962 214.916 860.063 215.449 857.501 215.449C856.355 215.449 855.31 215.325 854.367 215.075C853.85 215.415 853.591 215.892 853.591 216.505C853.591 216.936 853.749 217.277 854.063 217.526C854.4 217.753 854.951 217.867 855.715 217.867H860.838C862.996 217.867 864.557 218.321 865.524 219.229C866.512 220.137 867.007 221.419 867.007 223.076ZM862.321 223.757C862.321 223.235 862.119 222.838 861.715 222.565C861.31 222.293 860.602 222.157 859.591 222.157H853.524C853.299 222.384 853.131 222.633 853.018 222.906C852.928 223.201 852.883 223.484 852.883 223.757C852.883 224.415 853.164 224.892 853.726 225.187C854.288 225.505 855.243 225.663 856.591 225.663H858.614C859.962 225.663 860.917 225.505 861.479 225.187C862.041 224.892 862.321 224.415 862.321 223.757ZM857.501 212.147C858.49 212.147 859.22 211.943 859.692 211.534C860.187 211.103 860.434 210.49 860.434 209.696V209.287C860.434 208.493 860.187 207.891 859.692 207.482C859.22 207.051 858.49 206.836 857.501 206.836C856.513 206.836 855.771 207.051 855.277 207.482C854.805 207.891 854.569 208.493 854.569 209.287V209.696C854.569 210.49 854.805 211.103 855.277 211.534C855.771 211.943 856.513 212.147 857.501 212.147Z" fill="#4F46E5"/>
<path d="M882.236 221.782C881.337 221.782 880.584 221.498 879.978 220.931C879.393 220.363 879.023 219.603 878.865 218.65H878.663C878.393 219.807 877.798 220.693 876.877 221.305C875.955 221.896 874.82 222.191 873.472 222.191C871.697 222.191 870.337 221.714 869.393 220.761C868.45 219.807 867.978 218.548 867.978 216.982C867.978 215.098 868.652 213.702 870 212.794C871.371 211.863 873.225 211.398 875.562 211.398H878.36V210.274C878.36 209.412 878.135 208.731 877.685 208.232C877.236 207.709 876.483 207.448 875.427 207.448C874.438 207.448 873.652 207.664 873.068 208.095C872.483 208.527 872 209.015 871.618 209.559L868.652 206.904C869.371 205.837 870.27 205.008 871.348 204.418C872.45 203.805 873.933 203.499 875.798 203.499C878.315 203.499 880.202 204.055 881.461 205.167C882.719 206.28 883.348 207.902 883.348 210.036V217.867H885V221.782H882.236ZM875.326 218.684C876.157 218.684 876.865 218.502 877.45 218.139C878.056 217.776 878.36 217.186 878.36 216.369V214.258H875.933C873.978 214.258 873 214.927 873 216.267V216.777C873 217.435 873.202 217.923 873.607 218.241C874.011 218.536 874.584 218.684 875.326 218.684ZM876.438 202.069L873.472 200.605L876.809 194L880.955 196.077L876.438 202.069Z" fill="#4F46E5"/>
<rect x="82.9932" width="25.8201" height="67.6241" rx="4" fill="#4F46E5"/>
<rect x="108.813" y="193.651" width="25.8201" height="67.6241" rx="4" transform="rotate(180 108.813 193.651)" fill="#4F46E5"/>
<rect x="18.4239" y="38.3447" width="25.8201" height="67.6241" rx="4" transform="rotate(-45.3118 18.4239 38.3447)" fill="#4F46E5"/>
<rect x="173.383" y="155.308" width="25.8201" height="67.6241" rx="4" transform="rotate(134.688 173.383 155.308)" fill="#4F46E5"/>
<rect width="25.8201" height="67.6241" rx="4" transform="matrix(0.703248 0.710944 0.710944 -0.703248 18.4429 156.37)" fill="#4F46E5"/>
<rect x="192.421" y="83.6074" width="25.8201" height="67.6241" rx="4" transform="rotate(90 192.421 83.6074)" fill="#4F46E5"/>
<rect y="110.043" width="25.8201" height="67.6241" rx="4" transform="rotate(-90 0 110.043)" fill="#4F46E5"/>
<rect x="137.707" y="25.8203" width="25.8201" height="55.9436" rx="4" transform="rotate(-90 137.707 25.8203)" fill="#4F46E5"/>
<rect x="167.831" width="25.8201" height="55.9436" rx="4" fill="#4F46E5"/>
<path d="M857.275 48.4982C859.003 48.4982 860.253 48.1748 861.024 47.5281C861.827 46.8505 862.228 46.019 862.228 45.0335V44.7101C862.228 43.5399 861.842 42.6005 861.07 41.8922C860.33 41.1839 859.265 40.8297 857.876 40.8297C856.58 40.8297 855.361 41.1685 854.219 41.846C853.077 42.4928 852.105 43.4321 851.303 44.664L846.952 40.5987C847.569 39.798 848.232 39.0743 848.942 38.4275C849.652 37.75 850.454 37.1803 851.349 36.7183C852.244 36.2255 853.247 35.856 854.358 35.6096C855.469 35.3324 856.719 35.1938 858.108 35.1938C859.836 35.1938 861.395 35.394 862.783 35.7944C864.203 36.1948 865.406 36.7799 866.394 37.5498C867.412 38.289 868.184 39.1821 868.709 40.2292C869.264 41.2763 869.542 42.4466 869.542 43.74C869.542 44.7563 869.372 45.6803 869.033 46.5118C868.724 47.3433 868.277 48.067 867.69 48.683C867.135 49.2989 866.487 49.8071 865.746 50.2074C865.005 50.577 864.218 50.8388 863.385 50.9928V51.2699C864.342 51.4547 865.221 51.7627 866.024 52.1938C866.857 52.5942 867.567 53.1178 868.153 53.7645C868.77 54.4112 869.249 55.1812 869.588 56.0743C869.928 56.9366 870.097 57.9221 870.097 59.0308C870.097 60.4783 869.804 61.7871 869.218 62.9574C868.631 64.1277 867.798 65.1286 866.718 65.9601C865.638 66.7917 864.342 67.4384 862.83 67.9004C861.317 68.3315 859.651 68.5471 857.83 68.5471C856.194 68.5471 854.744 68.3777 853.479 68.039C852.213 67.7002 851.102 67.2536 850.146 66.6993C849.22 66.1141 848.402 65.452 847.692 64.7129C847.013 63.9737 846.411 63.1884 845.887 62.3569L851.025 58.3841C851.735 59.7083 852.599 60.8016 853.618 61.664C854.667 62.4955 856.071 62.9112 857.83 62.9112C859.404 62.9112 860.623 62.5263 861.487 61.7563C862.382 60.9556 862.83 59.8777 862.83 58.5226V58.2455C862.83 56.9212 862.32 55.9357 861.302 55.289C860.314 54.6114 858.941 54.2726 857.182 54.2726H854.266V48.4982H857.275Z" fill="#4F46E5"/>
<path d="M886.976 68.5471C885.062 68.5471 883.35 68.2545 881.837 67.6694C880.325 67.0534 879.044 66.1911 877.995 65.0824C876.977 63.9429 876.19 62.5879 875.634 61.0172C875.11 59.4466 874.847 57.6911 874.847 55.7509C874.847 53.5027 875.187 51.3777 875.866 49.3759C876.576 47.3433 877.471 45.4801 878.551 43.7862C879.662 42.0616 880.896 40.5217 882.254 39.1667C883.643 37.8116 885.031 36.6721 886.42 35.7482H896.003C894.028 37.1649 892.253 38.5199 890.679 39.8134C889.105 41.0761 887.732 42.3542 886.559 43.6476C885.417 44.9411 884.461 46.2654 883.689 47.6205C882.948 48.9448 882.424 50.3768 882.115 51.9167L882.532 52.0553C882.809 51.4393 883.134 50.8388 883.504 50.2536C883.905 49.6685 884.383 49.1603 884.939 48.7292C885.525 48.2672 886.204 47.8976 886.976 47.6205C887.747 47.3433 888.642 47.2047 889.661 47.2047C890.988 47.2047 892.222 47.4511 893.364 47.9438C894.537 48.4058 895.54 49.0679 896.373 49.9303C897.237 50.7926 897.901 51.8551 898.364 53.1178C898.857 54.3496 899.104 55.7201 899.104 57.2292C899.104 58.8922 898.811 60.4167 898.225 61.8025C897.669 63.1884 896.851 64.3895 895.771 65.4058C894.722 66.3913 893.457 67.1612 891.975 67.7156C890.494 68.2699 888.827 68.5471 886.976 68.5471ZM886.976 63.1422C888.519 63.1422 889.722 62.7265 890.586 61.8949C891.451 61.0326 891.883 59.8161 891.883 58.2455V57.414C891.883 55.8433 891.451 54.6422 890.586 53.8107C889.722 52.9484 888.519 52.5172 886.976 52.5172C885.433 52.5172 884.229 52.9484 883.365 53.8107C882.501 54.6422 882.069 55.8433 882.069 57.414V58.2455C882.069 59.8161 882.501 61.0326 883.365 61.8949C884.229 62.7265 885.433 63.1422 886.976 63.1422Z" fill="#4F46E5"/>
<path d="M914.548 68.5471C910.32 68.5471 907.187 67.0842 905.15 64.1585C903.113 61.2328 902.095 57.1368 902.095 51.8705C902.095 46.6042 903.113 42.5082 905.15 39.5824C907.187 36.6567 910.32 35.1938 914.548 35.1938C918.776 35.1938 921.908 36.6567 923.945 39.5824C925.982 42.5082 927 46.6042 927 51.8705C927 57.1368 925.982 61.2328 923.945 64.1585C921.908 67.0842 918.776 68.5471 914.548 68.5471ZM914.548 62.6803C916.399 62.6803 917.68 62.0027 918.39 60.6476C919.1 59.2926 919.454 57.3832 919.454 54.9194V48.8216C919.454 46.3578 919.1 44.4484 918.39 43.0933C917.68 41.7382 916.399 41.0607 914.548 41.0607C912.696 41.0607 911.415 41.7382 910.705 43.0933C909.996 44.4484 909.641 46.3578 909.641 48.8216V54.9194C909.641 57.3832 909.996 59.2926 910.705 60.6476C911.415 62.0027 912.696 62.6803 914.548 62.6803Z" fill="#4F46E5"/>
<path d="M220 46.8044H282.772C293.511 46.8044 301.844 49.8225 307.769 55.8587C313.818 61.8949 316.842 69.9022 316.842 79.8804C316.842 84.808 316.163 88.9964 314.805 92.4456C313.571 95.8949 311.843 98.7283 309.621 100.946C307.522 103.163 304.992 104.826 302.029 105.935C299.19 106.92 296.104 107.475 292.771 107.598V108.707C295.857 108.707 299.066 109.261 302.399 110.37C305.856 111.478 309.003 113.264 311.843 115.728C314.682 118.069 317.027 121.149 318.879 124.967C320.854 128.786 321.842 133.467 321.842 139.011C321.842 144.062 320.978 148.866 319.249 153.424C317.645 157.859 315.361 161.739 312.398 165.065C309.436 168.391 305.917 171.04 301.844 173.011C297.77 174.859 293.326 175.783 288.512 175.783H220V46.8044ZM248.145 152.13H280.55C284.253 152.13 287.154 151.145 289.252 149.174C291.474 147.08 292.585 144.185 292.585 140.489V134.207C292.585 130.511 291.474 127.678 289.252 125.707C287.154 123.612 284.253 122.565 280.55 122.565H248.145V152.13ZM248.145 99.6522H276.106C279.809 99.6522 282.71 98.6051 284.808 96.5109C286.907 94.4167 287.956 91.5217 287.956 87.8261V82.2826C287.956 78.587 286.907 75.692 284.808 73.5978C282.71 71.5036 279.809 70.4565 276.106 70.4565H248.145V99.6522Z" fill="white"/>
<path d="M399.425 159.522H398.499C397.635 161.985 396.462 164.326 394.981 166.543C393.623 168.761 391.833 170.732 389.611 172.457C387.389 174.181 384.735 175.536 381.649 176.522C378.686 177.507 375.23 178 371.28 178C361.281 178 353.689 174.735 348.504 168.207C343.443 161.554 340.912 152.069 340.912 139.75V78.7717H368.317V137.348C368.317 143.261 369.366 147.819 371.465 151.022C373.564 154.225 377.143 155.826 382.205 155.826C384.303 155.826 386.402 155.518 388.5 154.902C390.599 154.286 392.451 153.424 394.055 152.315C395.66 151.083 396.956 149.605 397.944 147.88C398.931 146.156 399.425 144.123 399.425 141.783V78.7717H426.83V175.783H399.425V159.522ZM387.019 68.7935L370.724 60.8478L389.056 25L411.831 36.2717L387.019 68.7935Z" fill="white"/>
<path d="M485.288 178C475.906 178 468.005 176.522 461.586 173.565C455.167 170.486 449.427 166.174 444.366 160.63L460.475 144.37C463.932 148.188 467.758 151.207 471.956 153.424C476.153 155.641 480.905 156.75 486.213 156.75C491.645 156.75 495.41 155.949 497.509 154.348C499.607 152.623 500.656 150.344 500.656 147.511C500.656 142.953 497.385 140.243 490.843 139.38L480.288 138.087C458.438 135.377 447.514 125.399 447.514 108.152C447.514 103.471 448.378 99.221 450.106 95.4022C451.958 91.4601 454.488 88.1341 457.698 85.4239C461.031 82.5906 464.981 80.4348 469.548 78.9565C474.239 77.3551 479.486 76.5544 485.288 76.5544C490.349 76.5544 494.793 76.9239 498.62 77.663C502.57 78.279 506.026 79.2645 508.989 80.6196C512.075 81.8515 514.853 83.4529 517.321 85.4239C519.914 87.2717 522.444 89.3659 524.913 91.7065L509.174 107.783C506.088 104.703 502.57 102.301 498.62 100.576C494.793 98.7283 490.843 97.8043 486.769 97.8043C482.078 97.8043 478.745 98.5435 476.77 100.022C474.795 101.5 473.807 103.471 473.807 105.935C473.807 108.522 474.486 110.554 475.844 112.033C477.325 113.388 480.041 114.373 483.991 114.989L494.916 116.467C516.272 119.301 526.95 129.033 526.95 145.663C526.95 150.344 525.963 154.656 523.987 158.598C522.012 162.54 519.173 165.989 515.47 168.946C511.89 171.779 507.508 173.996 502.323 175.598C497.262 177.199 491.583 178 485.288 178Z" fill="white"/>
<path d="M577.328 178C567.947 178 560.046 176.522 553.627 173.565C547.208 170.486 541.468 166.174 536.407 160.63L552.516 144.37C555.973 148.188 559.799 151.207 563.996 153.424C568.194 155.641 572.946 156.75 578.254 156.75C583.686 156.75 587.451 155.949 589.549 154.348C591.648 152.623 592.697 150.344 592.697 147.511C592.697 142.953 589.426 140.243 582.883 139.38L572.329 138.087C550.479 135.377 539.554 125.399 539.554 108.152C539.554 103.471 540.419 99.221 542.147 95.4022C543.998 91.4601 546.529 88.1341 549.739 85.4239C553.072 82.5906 557.022 80.4348 561.589 78.9565C566.28 77.3551 571.527 76.5544 577.328 76.5544C582.39 76.5544 586.834 76.9239 590.66 77.663C594.611 78.279 598.067 79.2645 601.03 80.6196C604.116 81.8515 606.893 83.4529 609.362 85.4239C611.955 87.2717 614.485 89.3659 616.954 91.7065L601.215 107.783C598.129 104.703 594.611 102.301 590.66 100.576C586.834 98.7283 582.883 97.8043 578.81 97.8043C574.119 97.8043 570.786 98.5435 568.811 100.022C566.836 101.5 565.848 103.471 565.848 105.935C565.848 108.522 566.527 110.554 567.885 112.033C569.366 113.388 572.082 114.373 576.032 114.989L586.957 116.467C608.313 119.301 618.991 129.033 618.991 145.663C618.991 150.344 618.003 154.656 616.028 158.598C614.053 162.54 611.214 165.989 607.511 168.946C603.931 171.779 599.548 173.996 594.364 175.598C589.303 177.199 583.624 178 577.328 178Z" fill="white"/>
<path d="M677.116 178C669.956 178 663.537 176.83 657.859 174.489C652.304 172.149 647.551 168.761 643.601 164.326C639.774 159.891 636.811 154.533 634.713 148.25C632.614 141.967 631.565 134.946 631.565 127.185C631.565 119.424 632.614 112.402 634.713 106.12C636.811 99.837 639.774 94.5398 643.601 90.2283C647.551 85.7935 652.304 82.4058 657.859 80.0652C663.537 77.7246 669.956 76.5544 677.116 76.5544C684.276 76.5544 690.633 77.7246 696.188 80.0652C701.867 82.4058 706.619 85.7935 710.446 90.2283C714.396 94.5398 717.421 99.837 719.519 106.12C721.618 112.402 722.667 119.424 722.667 127.185C722.667 134.946 721.618 141.967 719.519 148.25C717.421 154.533 714.396 159.891 710.446 164.326C706.619 168.761 701.867 172.149 696.188 174.489C690.633 176.83 684.276 178 677.116 178ZM677.116 156.38C682.548 156.38 686.745 154.717 689.707 151.391C692.67 148.065 694.151 143.322 694.151 137.163V117.391C694.151 111.232 692.67 106.489 689.707 103.163C686.745 99.837 682.548 98.1739 677.116 98.1739C671.684 98.1739 667.487 99.837 664.525 103.163C661.562 106.489 660.081 111.232 660.081 117.391V137.163C660.081 143.322 661.562 148.065 664.525 151.391C667.487 154.717 671.684 156.38 677.116 156.38Z" fill="white"/>
<path d="M769.413 175.783C760.031 175.783 753.118 173.504 748.674 168.946C744.354 164.388 742.193 157.797 742.193 149.174V39.0435H769.598V154.533H781.819V175.783H769.413Z" fill="white"/>
<path d="M870.094 175.783C865.157 175.783 861.021 174.243 857.688 171.163C854.479 168.083 852.442 163.957 851.578 158.783H850.467C848.985 165.065 845.714 169.87 840.653 173.196C835.592 176.399 829.358 178 821.951 178C812.199 178 804.731 175.413 799.546 170.239C794.361 165.065 791.769 158.228 791.769 149.728C791.769 139.504 795.472 131.928 802.879 127C810.409 121.949 820.593 119.424 833.431 119.424H848.8V113.326C848.8 108.645 847.566 104.949 845.097 102.239C842.628 99.4058 838.493 97.9891 832.691 97.9891C827.259 97.9891 822.939 99.1594 819.729 101.5C816.52 103.841 813.865 106.489 811.767 109.446L795.472 95.0326C799.422 89.2428 804.36 84.7464 810.286 81.5435C816.334 78.2174 824.482 76.5544 834.728 76.5544C848.553 76.5544 858.923 79.5725 865.836 85.6087C872.749 91.6449 876.205 100.453 876.205 112.033V154.533H885.278V175.783H870.094ZM832.135 158.967C836.703 158.967 840.591 157.982 843.801 156.011C847.134 154.04 848.8 150.837 848.8 146.402V134.946H835.468C824.729 134.946 819.359 138.58 819.359 145.848V148.62C819.359 152.192 820.47 154.841 822.692 156.565C824.914 158.167 828.062 158.967 832.135 158.967Z" fill="white"/>
</svg>
