<svg width="1596" height="1596" viewBox="0 0 1596 1596" fill="none" xmlns="http://www.w3.org/2000/svg">
<rect x="5" y="5" width="1585.49" height="1585.49" rx="190" stroke="#3ECF8E" stroke-width="10"/>
<path d="M435.922 692.921V978.925C434.644 1035.77 450.486 1038.32 496.698 1011.1L796.824 796.386L796.109 597.288C797.109 544.586 785.392 538.025 743.377 566.006L560.155 696.496C545.15 709.973 536.728 709.37 521.723 696.496L473.46 665.214C442.715 649.573 434.364 655.301 435.922 692.921Z" fill="#1F1F1F"/>
<path d="M1157.07 902.572V616.568C1158.35 559.725 1142.5 557.17 1096.29 584.393L798.611 796.386L796.882 998.205C795.881 1050.91 807.598 1057.47 849.614 1029.49L1032.84 898.997C1047.84 885.52 1056.26 886.123 1071.27 898.997L1119.53 930.279C1150.28 945.92 1158.63 940.192 1157.07 902.572Z" fill="#1F1F1F"/>
</svg>
