<svg width="194" height="194" viewBox="0 0 194 194" fill="none" xmlns="http://www.w3.org/2000/svg">
<rect x="82.9932" width="25.8201" height="67.6241" rx="4" fill="#4F46E5"/>
<rect x="108.813" y="193.651" width="25.8201" height="67.6241" rx="4" transform="rotate(180 108.813 193.651)" fill="#4F46E5"/>
<rect x="18.4239" y="38.3447" width="25.8201" height="67.6241" rx="4" transform="rotate(-45.3118 18.4239 38.3447)" fill="#4F46E5"/>
<rect x="173.383" y="155.308" width="25.8201" height="67.6241" rx="4" transform="rotate(134.688 173.383 155.308)" fill="#4F46E5"/>
<rect width="25.8201" height="67.6241" rx="4" transform="matrix(0.703248 0.710944 0.710944 -0.703248 18.4429 156.37)" fill="#4F46E5"/>
<rect x="192.421" y="83.6074" width="25.8201" height="67.6241" rx="4" transform="rotate(90 192.421 83.6074)" fill="#4F46E5"/>
<rect y="110.043" width="25.8201" height="67.6241" rx="4" transform="rotate(-90 0 110.043)" fill="#4F46E5"/>
<rect x="137.707" y="25.8203" width="25.8201" height="55.9436" rx="4" transform="rotate(-90 137.707 25.8203)" fill="#4F46E5"/>
<rect x="167.831" width="25.8201" height="55.9436" rx="4" fill="#4F46E5"/>
</svg>
